<svg xmlns="http://www.w3.org/2000/svg" viewBox="0 0 128 128" width="128" height="128">
  <!-- Background -->
  <rect x="0.5" y="0.5" width="127" height="127" rx="10" ry="10" fill="white" stroke="#e4e4e4" stroke-width="1"/>
  <!-- Mac dots -->
  <circle cx="12" cy="11" r="3.5" fill="#ff5f57"/>
  <circle cx="22" cy="11" r="3.5" fill="#febc2e"/>
  <circle cx="32" cy="11" r="3.5" fill="#28c840"/>
  <!-- Heading line (bold) -->
  <rect x="8" y="21" width="52" height="3.5" rx="1.5" fill="#1a1a1a"/>
  <!-- Wireframe lines -->
  <rect x="8" y="30" width="108" height="2.5" rx="1" fill="#d8d8d8"/>
  <rect x="8" y="37" width="92" height="2.5" rx="1" fill="#d8d8d8"/>
  <rect x="8" y="44" width="76" height="2.5" rx="1" fill="#d8d8d8"/>
  <rect x="8" y="51" width="60" height="2.5" rx="1" fill="#d8d8d8"/>
  <!-- Target element (highlighted) -->
  <rect x="8" y="60" width="62" height="10" rx="2" fill="#f0f0f0" stroke="#e0e0e0" stroke-width="0.5"/>
  <!-- Loupe circle -->
  <circle cx="46" cy="48" r="16" fill="rgba(255,255,255,0.55)" stroke="#dc2626" stroke-width="3.5"/>
  <!-- Loupe glow ring -->
  <circle cx="46" cy="48" r="19" fill="none" stroke="rgba(220,38,38,0.15)" stroke-width="3"/>
  <!-- Loupe handle -->
  <line x1="57" y1="59" x2="69" y2="71" stroke="#dc2626" stroke-width="4" stroke-linecap="round"/>
  <!-- Fix it button -->
  <rect x="6" y="106" width="116" height="18" rx="4" fill="#dc2626"/>
  <text x="64" y="119" font-family="-apple-system,BlinkMacSystemFont,'Segoe UI',sans-serif" font-size="10.5" font-weight="700" fill="white" text-anchor="middle" dominant-baseline="auto">Fix it →</text>
</svg>
